<svg xmlns="http://www.w3.org/2000/svg" xmlns:xlink="http://www.w3.org/1999/xlink" contentStyleType="text/css" height="925px" preserveAspectRatio="none" style="width:1578px;height:925px;background:#FFFFFF;" version="1.1" viewBox="0 0 1578 925" width="1578px" zoomAndPan="magnify"><defs/><g><!--class WebSocketConfig--><g id="elem_WebSocketConfig"><rect codeLine="3" fill="#F1F1F1" height="85.2422" id="WebSocketConfig" rx="2.5" ry="2.5" style="stroke:#181818;stroke-width:0.5;" width="381.5986" x="7" y="44.5"/><ellipse cx="137.522" cy="60.5" fill="#ADD1B2" rx="11" ry="11" style="stroke:#181818;stroke-width:1.0;"/><path d="M140.2876,56.375 Q140.4438,56.1563 140.6313,56.0469 Q140.8188,55.9375 141.0376,55.9375 Q141.4126,55.9375 141.647,56.2031 Q141.8813,56.4531 141.8813,57.0625 L141.8813,58.5156 Q141.8813,59.125 141.647,59.3906 Q141.4126,59.6563 141.0376,59.6563 Q140.6938,59.6563 140.4907,59.4531 Q140.2876,59.2656 140.1782,58.75 Q140.1313,58.3906 139.9438,58.2031 Q139.6157,57.8281 139.0063,57.6094 Q138.397,57.3906 137.772,57.3906 Q137.0063,57.3906 136.3657,57.7188 Q135.7407,58.0469 135.2407,58.7969 Q134.7563,59.5469 134.7563,60.5781 L134.7563,61.6719 Q134.7563,62.9063 135.647,63.7344 Q136.5376,64.5469 138.1313,64.5469 Q139.0688,64.5469 139.7251,64.2969 Q140.1157,64.1406 140.5376,63.7031 Q140.8032,63.4375 140.9438,63.3594 Q141.1001,63.2813 141.3032,63.2813 Q141.6313,63.2813 141.8813,63.5469 Q142.147,63.7969 142.147,64.1406 Q142.147,64.4844 141.8032,64.8906 Q141.3032,65.4688 140.5063,65.7969 Q139.4282,66.25 138.1313,66.25 Q136.6157,66.25 135.4126,65.625 Q134.4282,65.125 133.7407,64.0625 Q133.0532,62.9844 133.0532,61.7031 L133.0532,60.5469 Q133.0532,59.2188 133.6626,58.0781 Q134.2876,56.9219 135.3813,56.3125 Q136.4751,55.6875 137.7095,55.6875 Q138.4438,55.6875 139.0845,55.8594 Q139.7407,56.0156 140.2876,56.375 Z " fill="#000000"/><text fill="#000000" font-family="sans-serif" font-size="14" lengthAdjust="spacing" textLength="112.0547" x="158.022" y="66.2969">WebSocketConfig</text><line style="stroke:#181818;stroke-width:0.5;" x1="8" x2="387.5986" y1="76.5" y2="76.5"/><line style="stroke:#181818;stroke-width:0.5;" x1="8" x2="387.5986" y1="84.5" y2="84.5"/><ellipse cx="18" cy="99.3105" fill="#84BE84" rx="3" ry="3" style="stroke:#038048;stroke-width:1.0;"/><text fill="#000000" font-family="sans-serif" font-size="14" lengthAdjust="spacing" textLength="355.5918" x="27" y="103.6074">configureMessageBroker(MessageBrokerRegistry config)</text><ellipse cx="18" cy="117.9316" fill="#84BE84" rx="3" ry="3" style="stroke:#038048;stroke-width:1.0;"/><text fill="#000000" font-family="sans-serif" font-size="14" lengthAdjust="spacing" textLength="355.5986" x="27" y="122.2285">registerStompEndpoints(StompEndpointRegistry registry)</text></g><!--class Message--><g id="elem_Message"><rect codeLine="8" fill="#F1F1F1" height="215.5898" id="Message" rx="2.5" ry="2.5" style="stroke:#181818;stroke-width:0.5;" width="154.3789" x="381" y="254.5"/><ellipse cx="425.5361" cy="270.5" fill="#ADD1B2" rx="11" ry="11" style="stroke:#181818;stroke-width:1.0;"/><path d="M428.3018,266.375 Q428.458,266.1563 428.6455,266.0469 Q428.833,265.9375 429.0518,265.9375 Q429.4268,265.9375 429.6611,266.2031 Q429.8955,266.4531 429.8955,267.0625 L429.8955,268.5156 Q429.8955,269.125 429.6611,269.3906 Q429.4268,269.6563 429.0518,269.6563 Q428.708,269.6563 428.5049,269.4531 Q428.3018,269.2656 428.1924,268.75 Q428.1455,268.3906 427.958,268.2031 Q427.6299,267.8281 427.0205,267.6094 Q426.4111,267.3906 425.7861,267.3906 Q425.0205,267.3906 424.3799,267.7188 Q423.7549,268.0469 423.2549,268.7969 Q422.7705,269.5469 422.7705,270.5781 L422.7705,271.6719 Q422.7705,272.9063 423.6611,273.7344 Q424.5518,274.5469 426.1455,274.5469 Q427.083,274.5469 427.7393,274.2969 Q428.1299,274.1406 428.5518,273.7031 Q428.8174,273.4375 428.958,273.3594 Q429.1143,273.2813 429.3174,273.2813 Q429.6455,273.2813 429.8955,273.5469 Q430.1611,273.7969 430.1611,274.1406 Q430.1611,274.4844 429.8174,274.8906 Q429.3174,275.4688 428.5205,275.7969 Q427.4424,276.25 426.1455,276.25 Q424.6299,276.25 423.4268,275.625 Q422.4424,275.125 421.7549,274.0625 Q421.0674,272.9844 421.0674,271.7031 L421.0674,270.5469 Q421.0674,269.2188 421.6768,268.0781 Q422.3018,266.9219 423.3955,266.3125 Q424.4893,265.6875 425.7236,265.6875 Q426.458,265.6875 427.0986,265.8594 Q427.7549,266.0156 428.3018,266.375 Z " fill="#000000"/><text fill="#000000" font-family="sans-serif" font-size="14" lengthAdjust="spacing" textLength="56.8066" x="446.0361" y="276.2969">Message</text><line style="stroke:#181818;stroke-width:0.5;" x1="382" x2="534.3789" y1="286.5" y2="286.5"/><rect fill="none" height="6" style="stroke:#C82930;stroke-width:1.0;" width="6" x="389" y="298.3105"/><text fill="#000000" font-family="sans-serif" font-size="14" lengthAdjust="spacing" textLength="83.2686" x="401" y="305.6074">String sender</text><rect fill="none" height="6" style="stroke:#C82930;stroke-width:1.0;" width="6" x="389" y="316.9316"/><text fill="#000000" font-family="sans-serif" font-size="14" lengthAdjust="spacing" textLength="86.3857" x="401" y="324.2285">String content</text><rect fill="none" height="6" style="stroke:#C82930;stroke-width:1.0;" width="6" x="389" y="335.5527"/><text fill="#000000" font-family="sans-serif" font-size="14" lengthAdjust="spacing" textLength="94.9307" x="401" y="342.8496">long timestamp</text><line style="stroke:#181818;stroke-width:0.5;" x1="382" x2="534.3789" y1="350.3633" y2="350.3633"/><ellipse cx="392" cy="365.1738" fill="#84BE84" rx="3" ry="3" style="stroke:#038048;stroke-width:1.0;"/><text fill="#000000" font-family="sans-serif" font-size="14" lengthAdjust="spacing" textLength="114.3926" x="401" y="369.4707">getSender() String</text><ellipse cx="392" cy="383.7949" fill="#84BE84" rx="3" ry="3" style="stroke:#038048;stroke-width:1.0;"/><text fill="#000000" font-family="sans-serif" font-size="14" lengthAdjust="spacing" textLength="109.7168" x="401" y="388.0918">setSender(String)</text><ellipse cx="392" cy="402.416" fill="#84BE84" rx="3" ry="3" style="stroke:#038048;stroke-width:1.0;"/><text fill="#000000" font-family="sans-serif" font-size="14" lengthAdjust="spacing" textLength="118.2822" x="401" y="406.7129">getContent() String</text><ellipse cx="392" cy="421.0371" fill="#84BE84" rx="3" ry="3" style="stroke:#038048;stroke-width:1.0;"/><text fill="#000000" font-family="sans-serif" font-size="14" lengthAdjust="spacing" textLength="113.6064" x="401" y="425.334">setContent(String)</text><ellipse cx="392" cy="439.6582" fill="#84BE84" rx="3" ry="3" style="stroke:#038048;stroke-width:1.0;"/><text fill="#000000" font-family="sans-serif" font-size="14" lengthAdjust="spacing" textLength="128.3789" x="401" y="443.9551">getTimestamp() long</text><ellipse cx="392" cy="458.2793" fill="#84BE84" rx="3" ry="3" style="stroke:#038048;stroke-width:1.0;"/><text fill="#000000" font-family="sans-serif" font-size="14" lengthAdjust="spacing" textLength="123.7031" x="401" y="462.5762">setTimestamp(long)</text></g><!--class PrivateMessage--><g id="elem_PrivateMessage"><rect codeLine="20" fill="#F1F1F1" height="271.4531" id="PrivateMessage" rx="2.5" ry="2.5" style="stroke:#181818;stroke-width:0.5;" width="154.3789" x="570" y="227"/><ellipse cx="594.9" cy="243" fill="#ADD1B2" rx="11" ry="11" style="stroke:#181818;stroke-width:1.0;"/><path d="M597.6656,238.875 Q597.8219,238.6563 598.0094,238.5469 Q598.1969,238.4375 598.4156,238.4375 Q598.7906,238.4375 599.025,238.7031 Q599.2594,238.9531 599.2594,239.5625 L599.2594,241.0156 Q599.2594,241.625 599.025,241.8906 Q598.7906,242.1563 598.4156,242.1563 Q598.0719,242.1563 597.8688,241.9531 Q597.6656,241.7656 597.5563,241.25 Q597.5094,240.8906 597.3219,240.7031 Q596.9938,240.3281 596.3844,240.1094 Q595.775,239.8906 595.15,239.8906 Q594.3844,239.8906 593.7438,240.2188 Q593.1188,240.5469 592.6188,241.2969 Q592.1344,242.0469 592.1344,243.0781 L592.1344,244.1719 Q592.1344,245.4063 593.025,246.2344 Q593.9156,247.0469 595.5094,247.0469 Q596.4469,247.0469 597.1031,246.7969 Q597.4938,246.6406 597.9156,246.2031 Q598.1813,245.9375 598.3219,245.8594 Q598.4781,245.7813 598.6813,245.7813 Q599.0094,245.7813 599.2594,246.0469 Q599.525,246.2969 599.525,246.6406 Q599.525,246.9844 599.1813,247.3906 Q598.6813,247.9688 597.8844,248.2969 Q596.8063,248.75 595.5094,248.75 Q593.9938,248.75 592.7906,248.125 Q591.8063,247.625 591.1188,246.5625 Q590.4313,245.4844 590.4313,244.2031 L590.4313,243.0469 Q590.4313,241.7188 591.0406,240.5781 Q591.6656,239.4219 592.7594,238.8125 Q593.8531,238.1875 595.0875,238.1875 Q595.8219,238.1875 596.4625,238.3594 Q597.1188,238.5156 597.6656,238.875 Z " fill="#000000"/><text fill="#000000" font-family="sans-serif" font-size="14" lengthAdjust="spacing" textLength="100.3789" x="611.1" y="248.7969">PrivateMessage</text><line style="stroke:#181818;stroke-width:0.5;" x1="571" x2="723.3789" y1="259" y2="259"/><rect fill="none" height="6" style="stroke:#C82930;stroke-width:1.0;" width="6" x="578" y="270.8105"/><text fill="#000000" font-family="sans-serif" font-size="14" lengthAdjust="spacing" textLength="83.2686" x="590" y="278.1074">String sender</text><rect fill="none" height="6" style="stroke:#C82930;stroke-width:1.0;" width="6" x="578" y="289.4316"/><text fill="#000000" font-family="sans-serif" font-size="14" lengthAdjust="spacing" textLength="93.3789" x="590" y="296.7285">String recipient</text><rect fill="none" height="6" style="stroke:#C82930;stroke-width:1.0;" width="6" x="578" y="308.0527"/><text fill="#000000" font-family="sans-serif" font-size="14" lengthAdjust="spacing" textLength="86.3857" x="590" y="315.3496">String content</text><rect fill="none" height="6" style="stroke:#C82930;stroke-width:1.0;" width="6" x="578" y="326.6738"/><text fill="#000000" font-family="sans-serif" font-size="14" lengthAdjust="spacing" textLength="94.9307" x="590" y="333.9707">long timestamp</text><line style="stroke:#181818;stroke-width:0.5;" x1="571" x2="723.3789" y1="341.4844" y2="341.4844"/><ellipse cx="581" cy="356.2949" fill="#84BE84" rx="3" ry="3" style="stroke:#038048;stroke-width:1.0;"/><text fill="#000000" font-family="sans-serif" font-size="14" lengthAdjust="spacing" textLength="114.3926" x="590" y="360.5918">getSender() String</text><ellipse cx="581" cy="374.916" fill="#84BE84" rx="3" ry="3" style="stroke:#038048;stroke-width:1.0;"/><text fill="#000000" font-family="sans-serif" font-size="14" lengthAdjust="spacing" textLength="109.7168" x="590" y="379.2129">setSender(String)</text><ellipse cx="581" cy="393.5371" fill="#84BE84" rx="3" ry="3" style="stroke:#038048;stroke-width:1.0;"/><text fill="#000000" font-family="sans-serif" font-size="14" lengthAdjust="spacing" textLength="127.6133" x="590" y="397.834">getRecipient() String</text><ellipse cx="581" cy="412.1582" fill="#84BE84" rx="3" ry="3" style="stroke:#038048;stroke-width:1.0;"/><text fill="#000000" font-family="sans-serif" font-size="14" lengthAdjust="spacing" textLength="122.9375" x="590" y="416.4551">setRecipient(String)</text><ellipse cx="581" cy="430.7793" fill="#84BE84" rx="3" ry="3" style="stroke:#038048;stroke-width:1.0;"/><text fill="#000000" font-family="sans-serif" font-size="14" lengthAdjust="spacing" textLength="118.2822" x="590" y="435.0762">getContent() String</text><ellipse cx="581" cy="449.4004" fill="#84BE84" rx="3" ry="3" style="stroke:#038048;stroke-width:1.0;"/><text fill="#000000" font-family="sans-serif" font-size="14" lengthAdjust="spacing" textLength="113.6064" x="590" y="453.6973">setContent(String)</text><ellipse cx="581" cy="468.0215" fill="#84BE84" rx="3" ry="3" style="stroke:#038048;stroke-width:1.0;"/><text fill="#000000" font-family="sans-serif" font-size="14" lengthAdjust="spacing" textLength="128.3789" x="590" y="472.3184">getTimestamp() long</text><ellipse cx="581" cy="486.6426" fill="#84BE84" rx="3" ry="3" style="stroke:#038048;stroke-width:1.0;"/><text fill="#000000" font-family="sans-serif" font-size="14" lengthAdjust="spacing" textLength="123.7031" x="590" y="490.9395">setTimestamp(long)</text></g><!--class User--><g id="elem_User"><rect codeLine="35" fill="#F1F1F1" height="196.9688" id="User" rx="2.5" ry="2.5" style="stroke:#181818;stroke-width:0.5;" width="190.1582" x="1252" y="722"/><ellipse cx="1328.0498" cy="738" fill="#ADD1B2" rx="11" ry="11" style="stroke:#181818;stroke-width:1.0;"/><path d="M1330.8154,733.875 Q1330.9717,733.6563 1331.1592,733.5469 Q1331.3467,733.4375 1331.5654,733.4375 Q1331.9404,733.4375 1332.1748,733.7031 Q1332.4092,733.9531 1332.4092,734.5625 L1332.4092,736.0156 Q1332.4092,736.625 1332.1748,736.8906 Q1331.9404,737.1563 1331.5654,737.1563 Q1331.2217,737.1563 1331.0186,736.9531 Q1330.8154,736.7656 1330.7061,736.25 Q1330.6592,735.8906 1330.4717,735.7031 Q1330.1436,735.3281 1329.5342,735.1094 Q1328.9248,734.8906 1328.2998,734.8906 Q1327.5342,734.8906 1326.8936,735.2188 Q1326.2686,735.5469 1325.7686,736.2969 Q1325.2842,737.0469 1325.2842,738.0781 L1325.2842,739.1719 Q1325.2842,740.4063 1326.1748,741.2344 Q1327.0654,742.0469 1328.6592,742.0469 Q1329.5967,742.0469 1330.2529,741.7969 Q1330.6436,741.6406 1331.0654,741.2031 Q1331.3311,740.9375 1331.4717,740.8594 Q1331.6279,740.7813 1331.8311,740.7813 Q1332.1592,740.7813 1332.4092,741.0469 Q1332.6748,741.2969 1332.6748,741.6406 Q1332.6748,741.9844 1332.3311,742.3906 Q1331.8311,742.9688 1331.0342,743.2969 Q1329.9561,743.75 1328.6592,743.75 Q1327.1436,743.75 1325.9404,743.125 Q1324.9561,742.625 1324.2686,741.5625 Q1323.5811,740.4844 1323.5811,739.2031 L1323.5811,738.0469 Q1323.5811,736.7188 1324.1904,735.5781 Q1324.8154,734.4219 1325.9092,733.8125 Q1327.0029,733.1875 1328.2373,733.1875 Q1328.9717,733.1875 1329.6123,733.3594 Q1330.2686,733.5156 1330.8154,733.875 Z " fill="#000000"/><text fill="#000000" font-family="sans-serif" font-size="14" lengthAdjust="spacing" textLength="29.5586" x="1348.5498" y="743.7969">User</text><line style="stroke:#181818;stroke-width:0.5;" x1="1253" x2="1441.1582" y1="754" y2="754"/><rect fill="none" height="6" style="stroke:#C82930;stroke-width:1.0;" width="6" x="1260" y="765.8105"/><text fill="#000000" font-family="sans-serif" font-size="14" lengthAdjust="spacing" textLength="58.3721" x="1272" y="773.1074">Integer id</text><rect fill="none" height="6" style="stroke:#C82930;stroke-width:1.0;" width="6" x="1260" y="784.4316"/><text fill="#000000" font-family="sans-serif" font-size="14" lengthAdjust="spacing" textLength="102.7168" x="1272" y="791.7285">String username</text><rect fill="none" height="6" style="stroke:#C82930;stroke-width:1.0;" width="6" x="1260" y="803.0527"/><text fill="#000000" font-family="sans-serif" font-size="14" lengthAdjust="spacing" textLength="73.917" x="1272" y="810.3496">String email</text><rect fill="none" height="6" style="stroke:#C82930;stroke-width:1.0;" width="6" x="1260" y="821.6738"/><text fill="#000000" font-family="sans-serif" font-size="14" lengthAdjust="spacing" textLength="100.3789" x="1272" y="828.9707">String password</text><line style="stroke:#181818;stroke-width:0.5;" x1="1253" x2="1441.1582" y1="836.4844" y2="836.4844"/><ellipse cx="1263" cy="851.2949" fill="#84BE84" rx="3" ry="3" style="stroke:#038048;stroke-width:1.0;"/><text fill="#000000" font-family="sans-serif" font-size="14" lengthAdjust="spacing" textLength="38.8828" x="1272" y="855.5918">User()</text><ellipse cx="1263" cy="869.916" fill="#84BE84" rx="3" ry="3" style="stroke:#038048;stroke-width:1.0;"/><text fill="#000000" font-family="sans-serif" font-size="14" lengthAdjust="spacing" textLength="164.1582" x="1272" y="874.2129">User(String, String, String)</text><ellipse cx="1263" cy="888.5371" fill="#84BE84" rx="3" ry="3" style="stroke:#038048;stroke-width:1.0;"/><text fill="#000000" font-family="sans-serif" font-size="14" lengthAdjust="spacing" textLength="52.124" x="1272" y="892.834">getters()</text><ellipse cx="1263" cy="907.1582" fill="#84BE84" rx="3" ry="3" style="stroke:#038048;stroke-width:1.0;"/><text fill="#000000" font-family="sans-serif" font-size="14" lengthAdjust="spacing" textLength="51.3379" x="1272" y="911.4551">setters()</text></g><!--class UserRepository--><g id="elem_UserRepository"><rect codeLine="46" fill="#F1F1F1" height="103.8633" id="UserRepository" rx="2.5" ry="2.5" style="stroke:#181818;stroke-width:0.5;" width="277.3301" x="1208.5" y="558"/><ellipse cx="1294.6772" cy="574" fill="#ADD1B2" rx="11" ry="11" style="stroke:#181818;stroke-width:1.0;"/><path d="M1297.4429,569.875 Q1297.5991,569.6563 1297.7866,569.5469 Q1297.9741,569.4375 1298.1929,569.4375 Q1298.5679,569.4375 1298.8022,569.7031 Q1299.0366,569.9531 1299.0366,570.5625 L1299.0366,572.0156 Q1299.0366,572.625 1298.8022,572.8906 Q1298.5679,573.1563 1298.1929,573.1563 Q1297.8491,573.1563 1297.646,572.9531 Q1297.4429,572.7656 1297.3335,572.25 Q1297.2866,571.8906 1297.0991,571.7031 Q1296.771,571.3281 1296.1616,571.1094 Q1295.5522,570.8906 1294.9272,570.8906 Q1294.1616,570.8906 1293.521,571.2188 Q1292.896,571.5469 1292.396,572.2969 Q1291.9116,573.0469 1291.9116,574.0781 L1291.9116,575.1719 Q1291.9116,576.4063 1292.8022,577.2344 Q1293.6929,578.0469 1295.2866,578.0469 Q1296.2241,578.0469 1296.8804,577.7969 Q1297.271,577.6406 1297.6929,577.2031 Q1297.9585,576.9375 1298.0991,576.8594 Q1298.2554,576.7813 1298.4585,576.7813 Q1298.7866,576.7813 1299.0366,577.0469 Q1299.3022,577.2969 1299.3022,577.6406 Q1299.3022,577.9844 1298.9585,578.3906 Q1298.4585,578.9688 1297.6616,579.2969 Q1296.5835,579.75 1295.2866,579.75 Q1293.771,579.75 1292.5679,579.125 Q1291.5835,578.625 1290.896,577.5625 Q1290.2085,576.4844 1290.2085,575.2031 L1290.2085,574.0469 Q1290.2085,572.7188 1290.8179,571.5781 Q1291.4429,570.4219 1292.5366,569.8125 Q1293.6304,569.1875 1294.8647,569.1875 Q1295.5991,569.1875 1296.2397,569.3594 Q1296.896,569.5156 1297.4429,569.875 Z " fill="#000000"/><text fill="#000000" font-family="sans-serif" font-size="14" lengthAdjust="spacing" textLength="96.4756" x="1315.1772" y="579.7969">UserRepository</text><line style="stroke:#181818;stroke-width:0.5;" x1="1209.5" x2="1484.8301" y1="590" y2="590"/><text fill="#000000" font-family="sans-serif" font-size="14" lengthAdjust="spacing" textLength="69.2686" x="1214.5" y="609.1074">&#171;interface&#187;</text><line style="stroke:#181818;stroke-width:0.5;" x1="1209.5" x2="1484.8301" y1="616.6211" y2="616.6211"/><ellipse cx="1219.5" cy="631.4316" fill="#84BE84" rx="3" ry="3" style="stroke:#038048;stroke-width:1.0;"/><text fill="#000000" font-family="sans-serif" font-size="14" lengthAdjust="spacing" textLength="251.3301" x="1228.5" y="635.7285">findByUsername(String) Optional~User~</text><ellipse cx="1219.5" cy="650.0527" fill="#84BE84" rx="3" ry="3" style="stroke:#038048;stroke-width:1.0;"/><text fill="#000000" font-family="sans-serif" font-size="14" lengthAdjust="spacing" textLength="221.7578" x="1228.5" y="654.3496">findByEmail(String) Optional~User~</text></g><!--class UserService--><g id="elem_UserService"><rect codeLine="52" fill="#F1F1F1" height="85.2422" id="UserService" rx="2.5" ry="2.5" style="stroke:#181818;stroke-width:0.5;" width="239.2129" x="1314.5" y="320"/><ellipse cx="1391.7358" cy="336" fill="#ADD1B2" rx="11" ry="11" style="stroke:#181818;stroke-width:1.0;"/><path d="M1394.5015,331.875 Q1394.6577,331.6563 1394.8452,331.5469 Q1395.0327,331.4375 1395.2515,331.4375 Q1395.6265,331.4375 1395.8608,331.7031 Q1396.0952,331.9531 1396.0952,332.5625 L1396.0952,334.0156 Q1396.0952,334.625 1395.8608,334.8906 Q1395.6265,335.1563 1395.2515,335.1563 Q1394.9077,335.1563 1394.7046,334.9531 Q1394.5015,334.7656 1394.3921,334.25 Q1394.3452,333.8906 1394.1577,333.7031 Q1393.8296,333.3281 1393.2202,333.1094 Q1392.6108,332.8906 1391.9858,332.8906 Q1391.2202,332.8906 1390.5796,333.2188 Q1389.9546,333.5469 1389.4546,334.2969 Q1388.9702,335.0469 1388.9702,336.0781 L1388.9702,337.1719 Q1388.9702,338.4063 1389.8608,339.2344 Q1390.7515,340.0469 1392.3452,340.0469 Q1393.2827,340.0469 1393.939,339.7969 Q1394.3296,339.6406 1394.7515,339.2031 Q1395.0171,338.9375 1395.1577,338.8594 Q1395.314,338.7813 1395.5171,338.7813 Q1395.8452,338.7813 1396.0952,339.0469 Q1396.3608,339.2969 1396.3608,339.6406 Q1396.3608,339.9844 1396.0171,340.3906 Q1395.5171,340.9688 1394.7202,341.2969 Q1393.6421,341.75 1392.3452,341.75 Q1390.8296,341.75 1389.6265,341.125 Q1388.6421,340.625 1387.9546,339.5625 Q1387.2671,338.4844 1387.2671,337.2031 L1387.2671,336.0469 Q1387.2671,334.7188 1387.8765,333.5781 Q1388.5015,332.4219 1389.5952,331.8125 Q1390.689,331.1875 1391.9233,331.1875 Q1392.6577,331.1875 1393.2983,331.3594 Q1393.9546,331.5156 1394.5015,331.875 Z " fill="#000000"/><text fill="#000000" font-family="sans-serif" font-size="14" lengthAdjust="spacing" textLength="76.2412" x="1412.2358" y="341.7969">UserService</text><line style="stroke:#181818;stroke-width:0.5;" x1="1315.5" x2="1552.7129" y1="352" y2="352"/><line style="stroke:#181818;stroke-width:0.5;" x1="1315.5" x2="1552.7129" y1="360" y2="360"/><ellipse cx="1325.5" cy="374.8105" fill="#84BE84" rx="3" ry="3" style="stroke:#038048;stroke-width:1.0;"/><text fill="#000000" font-family="sans-serif" font-size="14" lengthAdjust="spacing" textLength="98.0137" x="1334.5" y="379.1074">saveUser(User)</text><ellipse cx="1325.5" cy="393.4316" fill="#84BE84" rx="3" ry="3" style="stroke:#038048;stroke-width:1.0;"/><text fill="#000000" font-family="sans-serif" font-size="14" lengthAdjust="spacing" textLength="213.2129" x="1334.5" y="397.7285">isUsernameTaken(String) boolean</text></g><!--class ActiveUserController--><g id="elem_ActiveUserController"><rect codeLine="57" fill="#F1F1F1" height="215.5898" id="ActiveUserController" rx="2.5" ry="2.5" style="stroke:#181818;stroke-width:0.5;" width="313.9092" x="818" y="254.5"/><ellipse cx="906.5186" cy="270.5" fill="#ADD1B2" rx="11" ry="11" style="stroke:#181818;stroke-width:1.0;"/><path d="M909.2842,266.375 Q909.4404,266.1563 909.6279,266.0469 Q909.8154,265.9375 910.0342,265.9375 Q910.4092,265.9375 910.6436,266.2031 Q910.8779,266.4531 910.8779,267.0625 L910.8779,268.5156 Q910.8779,269.125 910.6436,269.3906 Q910.4092,269.6563 910.0342,269.6563 Q909.6904,269.6563 909.4873,269.4531 Q909.2842,269.2656 909.1748,268.75 Q909.1279,268.3906 908.9404,268.2031 Q908.6123,267.8281 908.0029,267.6094 Q907.3936,267.3906 906.7686,267.3906 Q906.0029,267.3906 905.3623,267.7188 Q904.7373,268.0469 904.2373,268.7969 Q903.7529,269.5469 903.7529,270.5781 L903.7529,271.6719 Q903.7529,272.9063 904.6436,273.7344 Q905.5342,274.5469 907.1279,274.5469 Q908.0654,274.5469 908.7217,274.2969 Q909.1123,274.1406 909.5342,273.7031 Q909.7998,273.4375 909.9404,273.3594 Q910.0967,273.2813 910.2998,273.2813 Q910.6279,273.2813 910.8779,273.5469 Q911.1436,273.7969 911.1436,274.1406 Q911.1436,274.4844 910.7998,274.8906 Q910.2998,275.4688 909.5029,275.7969 Q908.4248,276.25 907.1279,276.25 Q905.6123,276.25 904.4092,275.625 Q903.4248,275.125 902.7373,274.0625 Q902.0498,272.9844 902.0498,271.7031 L902.0498,270.5469 Q902.0498,269.2188 902.6592,268.0781 Q903.2842,266.9219 904.3779,266.3125 Q905.4717,265.6875 906.7061,265.6875 Q907.4404,265.6875 908.0811,265.8594 Q908.7373,266.0156 909.2842,266.375 Z " fill="#000000"/><text fill="#000000" font-family="sans-serif" font-size="14" lengthAdjust="spacing" textLength="128.3721" x="927.0186" y="276.2969">ActiveUserController</text><line style="stroke:#181818;stroke-width:0.5;" x1="819" x2="1130.9092" y1="286.5" y2="286.5"/><rect fill="none" height="6" style="stroke:#C82930;stroke-width:1.0;" width="6" x="826" y="298.3105"/><text fill="#000000" font-family="sans-serif" font-size="14" lengthAdjust="spacing" textLength="150.958" x="838" y="305.6074">Set~String~ activeUsers</text><rect fill="none" height="6" style="stroke:#C82930;stroke-width:1.0;" width="6" x="826" y="316.9316"/><text fill="#000000" font-family="sans-serif" font-size="14" lengthAdjust="spacing" textLength="287.9092" x="838" y="324.2285">SimpMessagingTemplate messagingTemplate</text><line style="stroke:#181818;stroke-width:0.5;" x1="819" x2="1130.9092" y1="331.7422" y2="331.7422"/><ellipse cx="829" cy="346.5527" fill="#84BE84" rx="3" ry="3" style="stroke:#038048;stroke-width:1.0;"/><text fill="#000000" font-family="sans-serif" font-size="14" lengthAdjust="spacing" textLength="181.2959" x="838" y="350.8496">getActiveUsers() Set~String~</text><ellipse cx="829" cy="365.1738" fill="#84BE84" rx="3" ry="3" style="stroke:#038048;stroke-width:1.0;"/><text fill="#000000" font-family="sans-serif" font-size="14" lengthAdjust="spacing" textLength="98.8135" x="838" y="369.4707">addUser(String)</text><ellipse cx="829" cy="383.7949" fill="#84BE84" rx="3" ry="3" style="stroke:#038048;stroke-width:1.0;"/><text fill="#000000" font-family="sans-serif" font-size="14" lengthAdjust="spacing" textLength="122.1377" x="838" y="388.0918">removeUser(String)</text><ellipse cx="829" cy="402.416" fill="#84BE84" rx="3" ry="3" style="stroke:#038048;stroke-width:1.0;"/><text fill="#000000" font-family="sans-serif" font-size="14" lengthAdjust="spacing" textLength="177.4063" x="838" y="406.7129">isUserActive(String) boolean</text><rect fill="#F24D5C" height="6" style="stroke:#C82930;stroke-width:1.0;" width="6" x="826" y="418.0371"/><text fill="#000000" font-family="sans-serif" font-size="14" lengthAdjust="spacing" textLength="122.1514" x="838" y="425.334">broadcastUserList()</text><ellipse cx="829" cy="439.6582" fill="#84BE84" rx="3" ry="3" style="stroke:#038048;stroke-width:1.0;"/><text fill="#000000" font-family="sans-serif" font-size="14" lengthAdjust="spacing" textLength="150.1719" x="838" y="443.9551">notifyUserJoined(String)</text><ellipse cx="829" cy="458.2793" fill="#84BE84" rx="3" ry="3" style="stroke:#038048;stroke-width:1.0;"/><text fill="#000000" font-family="sans-serif" font-size="14" lengthAdjust="spacing" textLength="132.2686" x="838" y="462.5762">notifyUserLeft(String)</text></g><!--class ChatController--><g id="elem_ChatController"><rect codeLine="69" fill="#F1F1F1" height="159.7266" id="ChatController" rx="2.5" ry="2.5" style="stroke:#181818;stroke-width:0.5;" width="373.0674" x="424.5" y="7"/><ellipse cx="561.6528" cy="23" fill="#ADD1B2" rx="11" ry="11" style="stroke:#181818;stroke-width:1.0;"/><path d="M564.4185,18.875 Q564.5747,18.6563 564.7622,18.5469 Q564.9497,18.4375 565.1685,18.4375 Q565.5435,18.4375 565.7778,18.7031 Q566.0122,18.9531 566.0122,19.5625 L566.0122,21.0156 Q566.0122,21.625 565.7778,21.8906 Q565.5435,22.1563 565.1685,22.1563 Q564.8247,22.1563 564.6216,21.9531 Q564.4185,21.7656 564.3091,21.25 Q564.2622,20.8906 564.0747,20.7031 Q563.7466,20.3281 563.1372,20.1094 Q562.5278,19.8906 561.9028,19.8906 Q561.1372,19.8906 560.4966,20.2188 Q559.8716,20.5469 559.3716,21.2969 Q558.8872,22.0469 558.8872,23.0781 L558.8872,24.1719 Q558.8872,25.4063 559.7778,26.2344 Q560.6685,27.0469 562.2622,27.0469 Q563.1997,27.0469 563.856,26.7969 Q564.2466,26.6406 564.6685,26.2031 Q564.9341,25.9375 565.0747,25.8594 Q565.231,25.7813 565.4341,25.7813 Q565.7622,25.7813 566.0122,26.0469 Q566.2778,26.2969 566.2778,26.6406 Q566.2778,26.9844 565.9341,27.3906 Q565.4341,27.9688 564.6372,28.2969 Q563.5591,28.75 562.2622,28.75 Q560.7466,28.75 559.5435,28.125 Q558.5591,27.625 557.8716,26.5625 Q557.1841,25.4844 557.1841,24.2031 L557.1841,23.0469 Q557.1841,21.7188 557.7935,20.5781 Q558.4185,19.4219 559.5122,18.8125 Q560.606,18.1875 561.8403,18.1875 Q562.5747,18.1875 563.2153,18.3594 Q563.8716,18.5156 564.4185,18.875 Z " fill="#000000"/><text fill="#000000" font-family="sans-serif" font-size="14" lengthAdjust="spacing" textLength="90.2617" x="582.1528" y="28.7969">ChatController</text><line style="stroke:#181818;stroke-width:0.5;" x1="425.5" x2="796.5674" y1="39" y2="39"/><line style="stroke:#181818;stroke-width:0.5;" x1="425.5" x2="796.5674" y1="47" y2="47"/><ellipse cx="435.5" cy="61.8105" fill="#84BE84" rx="3" ry="3" style="stroke:#038048;stroke-width:1.0;"/><text fill="#000000" font-family="sans-serif" font-size="14" lengthAdjust="spacing" textLength="198.4336" x="444.5" y="66.1074">indexPage(String, Model) String</text><ellipse cx="435.5" cy="80.4316" fill="#84BE84" rx="3" ry="3" style="stroke:#038048;stroke-width:1.0;"/><text fill="#000000" font-family="sans-serif" font-size="14" lengthAdjust="spacing" textLength="191.4268" x="444.5" y="84.7285">chatPage(String, Model) String</text><ellipse cx="435.5" cy="99.0527" fill="#84BE84" rx="3" ry="3" style="stroke:#038048;stroke-width:1.0;"/><text fill="#000000" font-family="sans-serif" font-size="14" lengthAdjust="spacing" textLength="213.9922" x="444.5" y="103.3496">sendMessage(Message) Message</text><ellipse cx="435.5" cy="117.6738" fill="#84BE84" rx="3" ry="3" style="stroke:#038048;stroke-width:1.0;"/><text fill="#000000" font-family="sans-serif" font-size="14" lengthAdjust="spacing" textLength="252.123" x="444.5" y="121.9707">handlePrivateMessage(PrivateMessage)</text><ellipse cx="435.5" cy="136.2949" fill="#84BE84" rx="3" ry="3" style="stroke:#038048;stroke-width:1.0;"/><text fill="#000000" font-family="sans-serif" font-size="14" lengthAdjust="spacing" textLength="312.8467" x="444.5" y="140.5918">handleWebSocketConnect(SessionConnectEvent)</text><ellipse cx="435.5" cy="154.916" fill="#84BE84" rx="3" ry="3" style="stroke:#038048;stroke-width:1.0;"/><text fill="#000000" font-family="sans-serif" font-size="14" lengthAdjust="spacing" textLength="347.0674" x="444.5" y="159.2129">handleWebSocketDisconnect(SessionDisconnectEvent)</text></g><!--class UserController--><g id="elem_UserController"><rect codeLine="78" fill="#F1F1F1" height="141.1055" id="UserController" rx="2.5" ry="2.5" style="stroke:#181818;stroke-width:0.5;" width="323.2129" x="1248.5" y="16.5"/><ellipse cx="1360.7324" cy="32.5" fill="#ADD1B2" rx="11" ry="11" style="stroke:#181818;stroke-width:1.0;"/><path d="M1363.498,28.375 Q1363.6543,28.1563 1363.8418,28.0469 Q1364.0293,27.9375 1364.248,27.9375 Q1364.623,27.9375 1364.8574,28.2031 Q1365.0918,28.4531 1365.0918,29.0625 L1365.0918,30.5156 Q1365.0918,31.125 1364.8574,31.3906 Q1364.623,31.6563 1364.248,31.6563 Q1363.9043,31.6563 1363.7012,31.4531 Q1363.498,31.2656 1363.3887,30.75 Q1363.3418,30.3906 1363.1543,30.2031 Q1362.8262,29.8281 1362.2168,29.6094 Q1361.6074,29.3906 1360.9824,29.3906 Q1360.2168,29.3906 1359.5762,29.7188 Q1358.9512,30.0469 1358.4512,30.7969 Q1357.9668,31.5469 1357.9668,32.5781 L1357.9668,33.6719 Q1357.9668,34.9063 1358.8574,35.7344 Q1359.748,36.5469 1361.3418,36.5469 Q1362.2793,36.5469 1362.9355,36.2969 Q1363.3262,36.1406 1363.748,35.7031 Q1364.0137,35.4375 1364.1543,35.3594 Q1364.3105,35.2813 1364.5137,35.2813 Q1364.8418,35.2813 1365.0918,35.5469 Q1365.3574,35.7969 1365.3574,36.1406 Q1365.3574,36.4844 1365.0137,36.8906 Q1364.5137,37.4688 1363.7168,37.7969 Q1362.6387,38.25 1361.3418,38.25 Q1359.8262,38.25 1358.623,37.625 Q1357.6387,37.125 1356.9512,36.0625 Q1356.2637,34.9844 1356.2637,33.7031 L1356.2637,32.5469 Q1356.2637,31.2188 1356.873,30.0781 Q1357.498,28.9219 1358.5918,28.3125 Q1359.6855,27.6875 1360.9199,27.6875 Q1361.6543,27.6875 1362.2949,27.8594 Q1362.9512,28.0156 1363.498,28.375 Z " fill="#000000"/><text fill="#000000" font-family="sans-serif" font-size="14" lengthAdjust="spacing" textLength="90.248" x="1381.2324" y="38.2969">UserController</text><line style="stroke:#181818;stroke-width:0.5;" x1="1249.5" x2="1570.7129" y1="48.5" y2="48.5"/><line style="stroke:#181818;stroke-width:0.5;" x1="1249.5" x2="1570.7129" y1="56.5" y2="56.5"/><ellipse cx="1259.5" cy="71.3105" fill="#84BE84" rx="3" ry="3" style="stroke:#038048;stroke-width:1.0;"/><text fill="#000000" font-family="sans-serif" font-size="14" lengthAdjust="spacing" textLength="158.7236" x="1268.5" y="75.6074">showSignupForm() String</text><ellipse cx="1259.5" cy="89.9316" fill="#84BE84" rx="3" ry="3" style="stroke:#038048;stroke-width:1.0;"/><text fill="#000000" font-family="sans-serif" font-size="14" lengthAdjust="spacing" textLength="297.2129" x="1268.5" y="94.2285">registerUser(String, String, String, Model) String</text><ellipse cx="1259.5" cy="108.5527" fill="#84BE84" rx="3" ry="3" style="stroke:#038048;stroke-width:1.0;"/><text fill="#000000" font-family="sans-serif" font-size="14" lengthAdjust="spacing" textLength="235.7578" x="1268.5" y="112.8496">loginUser(String, String, Model) String</text><ellipse cx="1259.5" cy="127.1738" fill="#84BE84" rx="3" ry="3" style="stroke:#038048;stroke-width:1.0;"/><text fill="#000000" font-family="sans-serif" font-size="14" lengthAdjust="spacing" textLength="282.4746" x="1268.5" y="131.4707">handleForgotPassword(Map) ResponseEntity</text><ellipse cx="1259.5" cy="145.7949" fill="#84BE84" rx="3" ry="3" style="stroke:#038048;stroke-width:1.0;"/><text fill="#000000" font-family="sans-serif" font-size="14" lengthAdjust="spacing" textLength="278.585" x="1268.5" y="150.0918">handleResetPassword(Map) ResponseEntity</text></g><!--class WebSocketController--><g id="elem_WebSocketController"><rect codeLine="86" fill="#F1F1F1" height="85.2422" id="WebSocketController" rx="2.5" ry="2.5" style="stroke:#181818;stroke-width:0.5;" width="333.3711" x="832.5" y="44.5"/><ellipse cx="928.7979" cy="60.5" fill="#ADD1B2" rx="11" ry="11" style="stroke:#181818;stroke-width:1.0;"/><path d="M931.5635,56.375 Q931.7197,56.1563 931.9072,56.0469 Q932.0947,55.9375 932.3135,55.9375 Q932.6885,55.9375 932.9229,56.2031 Q933.1572,56.4531 933.1572,57.0625 L933.1572,58.5156 Q933.1572,59.125 932.9229,59.3906 Q932.6885,59.6563 932.3135,59.6563 Q931.9697,59.6563 931.7666,59.4531 Q931.5635,59.2656 931.4541,58.75 Q931.4072,58.3906 931.2197,58.2031 Q930.8916,57.8281 930.2822,57.6094 Q929.6729,57.3906 929.0479,57.3906 Q928.2822,57.3906 927.6416,57.7188 Q927.0166,58.0469 926.5166,58.7969 Q926.0322,59.5469 926.0322,60.5781 L926.0322,61.6719 Q926.0322,62.9063 926.9229,63.7344 Q927.8135,64.5469 929.4072,64.5469 Q930.3447,64.5469 931.001,64.2969 Q931.3916,64.1406 931.8135,63.7031 Q932.0791,63.4375 932.2197,63.3594 Q932.376,63.2813 932.5791,63.2813 Q932.9072,63.2813 933.1572,63.5469 Q933.4229,63.7969 933.4229,64.1406 Q933.4229,64.4844 933.0791,64.8906 Q932.5791,65.4688 931.7822,65.7969 Q930.7041,66.25 929.4072,66.25 Q927.8916,66.25 926.6885,65.625 Q925.7041,65.125 925.0166,64.0625 Q924.3291,62.9844 924.3291,61.7031 L924.3291,60.5469 Q924.3291,59.2188 924.9385,58.0781 Q925.5635,56.9219 926.6572,56.3125 Q927.751,55.6875 928.9854,55.6875 Q929.7197,55.6875 930.3604,55.8594 Q931.0166,56.0156 931.5635,56.375 Z " fill="#000000"/><text fill="#000000" font-family="sans-serif" font-size="14" lengthAdjust="spacing" textLength="132.2754" x="949.2979" y="66.2969">WebSocketController</text><line style="stroke:#181818;stroke-width:0.5;" x1="833.5" x2="1164.8711" y1="76.5" y2="76.5"/><line style="stroke:#181818;stroke-width:0.5;" x1="833.5" x2="1164.8711" y1="84.5" y2="84.5"/><ellipse cx="843.5" cy="99.3105" fill="#84BE84" rx="3" ry="3" style="stroke:#038048;stroke-width:1.0;"/><text fill="#000000" font-family="sans-serif" font-size="14" lengthAdjust="spacing" textLength="290.2607" x="852.5" y="103.6074">handleUserConnect(UserConnectionMessage)</text><ellipse cx="843.5" cy="117.9316" fill="#84BE84" rx="3" ry="3" style="stroke:#038048;stroke-width:1.0;"/><text fill="#000000" font-family="sans-serif" font-size="14" lengthAdjust="spacing" textLength="307.3711" x="852.5" y="122.2285">handleUserDisconnect(UserConnectionMessage)</text></g><!--link ChatController to ActiveUserController--><g id="link_ChatController_ActiveUserController"><path codeLine="91" d="M716.28,167.11 C752.5,194.32 788.8831,221.6558 827.5731,250.7258 " fill="none" id="ChatController-to-ActiveUserController" style="stroke:#181818;stroke-width:1.0;"/><polygon fill="#181818" points="832.37,254.33,827.5775,245.7258,828.3726,251.3265,822.7719,252.1217,832.37,254.33" style="stroke:#181818;stroke-width:1.0;"/></g><!--link ChatController to Message--><g id="link_ChatController_Message"><path codeLine="92" d="M566.75,167.11 C551.52,194.32 537.139,220.0235 520.879,249.0935 " fill="none" id="ChatController-to-Message" style="stroke:#181818;stroke-width:1.0;"/><polygon fill="#181818" points="517.95,254.33,525.8345,248.4279,520.3908,249.9662,518.8525,244.5226,517.95,254.33" style="stroke:#181818;stroke-width:1.0;"/></g><!--link ChatController to PrivateMessage--><g id="link_ChatController_PrivateMessage"><path codeLine="93" d="M621.41,167.11 C623.88,185.88 625.8086,200.4811 628.4986,220.9611 " fill="none" id="ChatController-to-PrivateMessage" style="stroke:#181818;stroke-width:1.0;"/><polygon fill="#181818" points="629.28,226.91,632.0739,217.4657,628.6289,221.9526,624.142,218.5076,629.28,226.91" style="stroke:#181818;stroke-width:1.0;"/></g><!--link UserController to UserService--><g id="link_UserController_UserService"><path codeLine="94" d="M1416.12,157.72 C1420.62,209 1426.0547,271.003 1429.8347,314.013 " fill="none" id="UserController-to-UserService" style="stroke:#181818;stroke-width:1.0;"/><polygon fill="#181818" points="1430.36,319.99,1433.5567,310.6744,1429.9223,315.0092,1425.5874,311.3748,1430.36,319.99" style="stroke:#181818;stroke-width:1.0;"/></g><!--link UserController to UserRepository--><g id="link_UserController_UserRepository"><path codeLine="95" d="M1337.94,157.86 C1321.28,178.4 1305.85,202.09 1297,227 C1256.69,340.5 1271.7,380.24 1297,498 C1301.37,518.35 1307.2027,534.0617 1315.9027,552.3517 " fill="none" id="UserController-to-UserRepository" style="stroke:#181818;stroke-width:1.0;"/><polygon fill="#181818" points="1318.48,557.77,1318.2262,547.9244,1316.3322,553.2548,1311.0019,551.3608,1318.48,557.77" style="stroke:#181818;stroke-width:1.0;"/></g><!--link UserService to UserRepository--><g id="link_UserService_UserRepository"><path codeLine="96" d="M1419.24,405.15 C1404.31,447.28 1383.2035,506.8344 1367.1635,552.1144 " fill="none" id="UserService-to-UserRepository" style="stroke:#181818;stroke-width:1.0;"/><polygon fill="#181818" points="1365.16,557.77,1371.9356,550.6222,1366.8295,553.057,1364.3948,547.9509,1365.16,557.77" style="stroke:#181818;stroke-width:1.0;"/></g><!--link UserRepository to User--><g id="link_UserRepository_User"><path codeLine="97" d="M1347,662 C1347,680.09 1347,695.09 1347,715.76 " fill="none" id="UserRepository-to-User" style="stroke:#181818;stroke-width:1.0;"/><polygon fill="#181818" points="1347,721.76,1351,712.76,1347,716.76,1343,712.76,1347,721.76" style="stroke:#181818;stroke-width:1.0;"/></g><!--link WebSocketController to ActiveUserController--><g id="link_WebSocketController_ActiveUserController"><path codeLine="98" d="M995.35,129.54 C992.44,162.71 988.7546,204.753 984.9146,248.503 " fill="none" id="WebSocketController-to-ActiveUserController" style="stroke:#181818;stroke-width:1.0;"/><polygon fill="#181818" points="984.39,254.48,989.1616,245.8642,984.8272,249.4991,981.1922,245.1647,984.39,254.48" style="stroke:#181818;stroke-width:1.0;"/></g><!--SRC=[rLRBZjem5DttAxnCHESFHaWTIgLMWpeYZBesoILO97Pa6wQeAj_UcpWlEtOOTLCr2x1zpttat8T3Y7dIWYf5Vi0-4Ua9z4hm0yl9hmzaz2pIvlGiOGDAqHoUf3Y1ZApT5dAcjBmI0uvj2xAHWaoqAAirpoh1k5QHjUqjo7OnsFZThFgj2RfrxmJxa6Z9U4uKy0oaLuGHQk3QbXK29PgLe3GjAplw77JIc8jYOcpOSjNBZJIUgA-Cox1-1mWPs7MHeOawr8c10L2Bxr3t8jc5QlXh1YMah68J3lyTlzikeB250VAV9EbLWNHJynK3oF6OPLxcpwZ2QGbU8PIK5Lv9XUxUXBHjBch_KUmvCreVYVq_fGFxNRa6rEGu-EvRg8HYMk14i5buVCHf0V90KrWkRVC7nhEdwsjBGvSeyhtIJ71Qt6h9pQUohicvXm-6ce2yiDHjf8MY5sWOgtyS8fZgejpH4_3UzLw80YYVz_afrSoOhajIYgAObae2-cQCtWZjySe1iR8oKm1nEoYh0iS2ATsJIMg705JTBeCh6qcpR5GnapkX52q_NhbXo7WAqjEynLuAcgLKwLhX6UyEj-guqEpGbCKtl6aWypiSKCzmc7QvDnEh8zN172omjE3d2uxOlcSs8eF2Fs1IDFLUR3sRs-dTNSDnTo7Qo2FbMG7sm8_iRUpJ67yIS4YH3WHZKxJRzGK7uRpYPwPIMtSuSTI3ZHMcLXt5My9oVgw-25a6PdRtsJ4pjcPfBWHsWLTvHidGW57b0lDf9ckqeLLCjg0gmHMikMRwwjD21BnFoKlPE6a1teoVbjicEQCrvcYk9chaAAjt59q8dKvvU5XwnzWStYrm3yIkx1xfr5AD7CtjUx3X9hAGtTI_0nlTOnsob_iI5cBc3m00]--></g></svg>